<svg xmlns="http://www.w3.org/2000/svg" fill="none" viewBox="0 0 500 569"><path fill="#E3E8EF" d="M0 230.135l113.5-48.27L270.5 0H500v569H271.5l-192-221.847H0V230.135z"/><g clip-path="url(#clip0_201_715)" opacity=".04"><mask id="a" style="mask-type:alpha" width="500" height="569" x="0" y="0" maskUnits="userSpaceOnUse"><path fill="#E3E8EF" d="M0 230.135l113.5-48.27L270.5 0H500v569H271.5l-192-221.847H0V230.135z"/></mask><g mask="url(#a)"><path fill="#11468F" d="M816.822 36.355h-9.757l12.34 23.49V40.938l-2.583-4.583zm-15.497 64.454l17.793 6.016v-2.578l-17.793-5.73v2.292zm-80.64-60.73l32.141 11.458-21.81 22.631-21.237-30.365-2.582.573 22.097 31.511-4.879 5.156-69.735-34.662-.861 2.005 68.874 34.376-8.035 8.594L487.946 18.88l-2.009 7.448 107.33 34.663-6.314 27.214-34.724-10.6-4.592 25.496-85.806-27.787-.861 3.151a99.715 99.715 0 0 0-2.296-17.188l68.588 15.756.287-28.933-3.157-.573-.287 26.355-65.718-15.183c-3.443-13.75-8.035-22.63-8.322-23.204l-8.035 2.006c.287.286 12.627 24.063 10.044 54.142-3.731 43.256-34.437 78.204-92.694 102.554-76.336 31.798-152.385 66.173-206.336 123.18-31.281 32.943-53.665 71.616-68.014 118.596-13.775 45.548-20.088 99.404-17.792 164.718h13.487c-2.295-54.142 1.148-100.263 10.332-140.654h33.002L149.6 600.691h4.592l-25.828-140.654h74.901l-14.636 140.654h4.592l14.061-140.654h35.586v140.654h8.896l-.287-92.528 98.72-123.467 9.757 23.777c-30.993 24.636-50.508 67.892-48.212 120.029l3.157 72.475h14.923l-3.731-72.475c-.861-17.188.861-33.23 4.879-47.84h58.83l49.647 120.315h4.879l-49.934-120.315h68.3l-3.444 1.432 48.212 119.17h4.592l-49.073-120.316h47.638l45.343 69.611 9.757 50.705h8.896l-8.896-43.829 150.95 8.307 10.331 35.522h14.923l-18.367-60.731 14.636 2.292 37.307 30.365 44.195 3.438v-5.443l-44.195-3.438-29.272-23.776 73.467 11.745v-5.157l-22.385-3.437-.861-86.513 23.246 1.433v-4.584l-27.55-1.718.574 90.523-25.254-4.011-10.618-68.752-32.142-48.985 66.005-12.891 28.985 7.448v-4.297l-20.089-5.156 20.089-4.011v-4.87l-48.213 9.454-50.794-68.179c12.053-1.719 24.679-2.865 37.593-3.151l60.84 60.73v-4.583l-57.109-56.72c18.367-.287 37.881.573 57.109 2.578v-8.021c-4.592-.573-8.897-.859-13.201-1.146-6.888-.573-13.775-.859-20.376-1.146l-1.435-33.803h35.012v-12.604h-48.499L756.27 228l62.848 28.36v-9.167l-23.819-53.855 23.819 7.734v-9.74l-35.872-11.745-6.027-25.782 30.994 8.308-15.497-36.954 26.115 8.307v-8.88l-16.358-5.156-5.453-52.424 21.811 7.735V72.45l-97.86-34.375-.286 2.005zm-6.888 86.512l25.828 8.308 8.322 33.23-74.614-24.063 2.87-12.605 36.733 10.026.861-14.896zm-97.285 44.975l-10.331 13.751c-11.766 15.469-30.994 24.349-54.239 24.349h-31.568l-1.147-50.131 48.212 9.167-5.74-29.22 54.813 32.084zm-55.674-35.521l-4.017-20.626 82.075 26.928-20.662 27.214-57.396-33.516zM454.944 245.761l66.291 44.975-20.375 39.245h-32.141l-13.775-84.22zm10.044 84.507h-34.724l-5.453-39.819 33.863 2.006 6.314 37.813zm59.691-36.954l34.724 23.49 3.157 13.177h-56.821l18.94-36.667zm33.576 18.62l-31.854-21.771 18.653-36.095 13.201 57.866zm-18.653-95.679h14.062c5.452 0 10.618-.573 15.497-1.433l16.644 23.491-39.316 8.307-6.887-30.365zm16.645 70.47h79.492l12.627 43.543h-82.075l-10.044-43.543zm-.861-3.724l-7.749-32.657 40.751-8.594 29.559 41.251h-62.561zm17.218-68.751c12.627-2.865 23.819-8.308 32.429-16.329l36.159 28.647-51.656 10.885-16.932-23.203zm-36.446 2.005l7.462 32.084-20.663 39.532-68.587-46.407-4.018-25.209h85.806zm-77.771 72.475l-64.282-3.724-7.749-68.751h60.265l11.766 72.475zm-67.726-4.296l-68.301-4.011-7.748-29.506 72.892 6.875 3.157 26.642zm-67.44-.287l67.727 4.011 4.591 41.823H259.512l64.57-43.542-.861-2.292zm71.457 4.297l26.689 1.719 5.166 40.105h-27.55l-4.305-41.824zm79.206 49.558l89.824 47.84H450.065l-45.916-47.84h69.735zm7.749 0h166.446l-13.775 47.84h-62.561l-90.11-47.84zm170.751 0h27.837c-6.027 14.037-9.184 30.079-9.184 47.84h-32.141l13.488-47.84zm19.227 62.45a205.138 205.138 0 0 0 7.175 37.527l24.106 82.502-112.495-120.316h81.214v.287zm11.767-70.184h-31.281l-12.914-43.543h63.135l5.453 16.042a86.608 86.608 0 0 0-21.237 23.204c-1.148 1.719-2.009 3.437-2.87 5.156l-.286-.859zm-61.701-47.267l-30.132-42.11 53.091-11.172 52.516 41.824 4.018 11.458h-79.493zm26.689-54.142l31.855-6.875L695.43 266.1l-47.064-37.241zm-3.444-2.864l-37.593-30.079c2.008-2.005 3.73-4.011 5.165-6.016l33.863-45.261 8.323 2.864 24.393 71.33-34.151 7.162zm13.201-77.632l81.215 26.641 12.053 47.84-79.78-35.236-13.488-39.245zm31.568-56.147l21.523 6.875-1.148 23.776-21.236-6.875.861-23.776zm-3.157-1.146l-.574 23.776-23.532-7.734-1.148-24.35 25.254 8.308zm-90.111-28.933l25.254 8.02-3.156 27.788-28.124-8.594 6.026-27.214zm-6.6 29.792l31.567 9.74 3.444-30.365 33.576 10.885 1.148 26.928 51.082 16.615-.574 12.318-36.159-9.74-3.73 14.896-40.464-13.464.574-1.145-43.621-21.772 3.157-14.896zm-34.724-10.886l31.567 9.74-3.73 16.902 38.741 19.479-70.309-22.917 3.731-23.204zm-1.722 33.23l10.044 50.705-80.928-15.756 16.932-52.71 53.952 17.761zm-92.12-21.198c.287-3.151.287-6.016.287-8.88l34.724 11.458-17.218 53.283-34.437-6.589c9.757-15.469 15.209-32.084 16.644-49.272zm-21.523 55.574c.861-1.432 2.009-2.578 2.87-4.01l73.179 14.036.574 26.355-103.025-10.026c10.618-8.308 19.514-17.188 26.402-26.355zm-75.762 54.142c17.506-7.448 32.715-15.756 45.916-25.209l106.756 10.599.287 21.485H348.475c4.879-2.292 10.331-4.583 15.497-6.875zm-30.994 13.464h49.934l4.305 38.1-73.466-6.875-5.166-20.34c8.036-3.724 16.071-7.448 24.393-10.885zm-30.706 13.75l12.627 49.845-93.268-5.729c24.967-16.329 52.23-30.938 80.641-44.116zM91.918 455.167c11.192-46.408 30.419-84.794 57.108-116.878h41.038l-25.828 116.878H91.918zm150.95 0h-74.614l25.541-116.878h49.073v116.878zm-86.955-124.899c1.435-1.719 3.157-3.438 4.592-5.156 16.645-17.761 35.585-33.23 55.961-47.267l98.146 6.016-69.162 46.407h-89.537zm95.277 170.16l-.861-162.426h80.354l17.218 41.824-96.711 120.602zm83.51-162.426h64.283l45.63 47.84h-22.959c-22.097 0-42.185 7.162-59.117 19.48l-27.837-67.32zm-2.87 136.931c6.888-21.772 18.367-39.819 33.577-52.71l21.81 52.71H331.83zm59.692 0l-22.958-55.288c15.496-12.318 34.437-19.193 55.099-19.193H458.1l48.5 74.767H391.522v-.286zm71.17-74.481h63.422l26.976 138.362-90.398-138.362zm100.442 145.811l-29.272-145.811h51.656l53.952 57.866-76.336 87.945zm2.87 4.869l77.197-89.377 62.561 67.033 8.896 30.365-148.654-8.021zm186.248-77.918l10.331 67.606-41.038-6.589-28.984-96.539c-.861-2.578-1.435-4.87-2.009-7.448l30.133-6.016 31.567 48.986zm-63.135-47.267c-3.444-15.182-4.879-29.792-4.305-42.97l53.091 33.23-48.786 9.74zm77.771-15.469l-23.819 4.584-57.97-36.382c.861-11.458 3.444-21.771 7.462-31.224 7.748-2.292 15.497-4.011 23.819-5.443h-.287l50.795 68.465zm5.739-113.727h7.462l1.148 33.517c-32.142-1.146-59.979 1.146-83.798 6.875 14.923-25.209 41.038-40.392 75.188-40.392zm-5.739-12.317c-21.81.286-40.751 5.729-55.961 16.042l-37.881-109.43 79.206 35.235 14.636 58.153zm24.393-92.529l26.689 60.444-62.561-27.787-12.34-48.412 48.212 15.755zm-11.479-13.464l-28.124-9.166-9.47-36.095-28.411-9.167.861-23.777 50.508 16.329 14.636 61.876zm23.532-20.339l-26.689-7.161-7.748-33.23 20.375 6.589 14.062 33.802zm-4.018-39.532l-81.214-26.068 22.384-23.49 55.099 14.323 3.731 35.235zm-5.452-52.423l1.435 14.896-52.804-13.75 13.775-14.61 37.594 13.464zm-477.817 76.486h.574v-.286c10.618-7.448 19.514-15.756 27.263-24.35 13.2-16.328 21.81-34.089 24.68-52.996 4.878-30.652-6.027-54.142-6.601-55.001l-4.018 1.146-3.73.86c.287.286 10.331 22.916 5.452 51.563-.861 4.87-2.009 9.74-3.73 14.61h-23.533l10.619-33.517-2.87-.86-10.905 34.377h-18.654l-2.87-30.652h-2.869l2.582 30.365H248.32c.574-2.291.861-4.297.574-6.588V44.088h-6.026v27.215c0 17.76-16.932 32.37-37.594 32.37h-14.636l9.757-67.32-2.87-.286-5.452 36.954h-59.692l3.157-33.23h-9.757l-3.731 33.23H84.456l8.897-28.933-2.87-.286-9.184 29.22H49.445c0-.287.287-.574.287-.86l6.026-35.808H50.02l-6.313 36.094c0 .287-.288.573-.288.86h-56.821l7.748-33.23h-2.87l-8.609 35.808h59.692C37.966 91.929 20.46 104.533 1.233 104.82l-22.671.573-38.168-33.23 13.488-49.558h-9.758l-14.062 50.704-39.315-6.016 13.488-28.074-2.87-.286-13.488 28.074-45.629-6.876 10.044-15.469-2.583-.573-24.68 37.527L-214 80.47v2.579l30.994 1.145L-214 99.664v2.578l36.159-18.048h1.435l-28.698 44.403-8.896-1.146v3.151l6.887.859-6.887 10.886v5.156l39.029-60.444 32.428 43.256-12.914 26.642H-214v3.151h24.393L-214 190.473v4.583l27.263-34.375-1.435-.573h53.378L-214 266.386v5.157l82.649-111.435h37.02l-24.393 87.085c-4.304 15.469-20.662 28.36-36.446 28.36H-214v12.318h41.899l-30.133 96.539H-214v4.297h89.25c-5.453 21.771-11.479 44.975-17.219 67.606H-214v4.869h70.883c-3.73 14.897-7.461 29.506-10.905 43.257H-214v10.026h10.331L-214 550.273v15.183l14.636-51.278h42.472c-11.766 45.548-20.949 80.784-22.384 85.94.574-.859 1.435-1.719 2.583-1.719l-.574 1.719h2.296c.574-2.292 1.722-6.302 3.731-14.323 1.721-6.875 4.304-16.042 7.174-27.501h77.197c-2.583 13.464-4.879 27.501-6.888 41.824h13.775c36.446-275.866 234.748-387.014 345.234-430.843 19.514-7.735 36.446-16.615 50.795-26.642zm38.742-61.876c-7.175 18.907-20.089 35.808-39.603 50.704l-4.592-50.704h44.195zm-47.065 0l4.592 52.996c-4.879 3.724-10.331 7.162-16.071 10.599l-57.969-18.334 39.89-45.261h29.558zm-115.651-4.87l-4.018 28.074h-24.393l7.174-28.074h21.237zm-61.127 14.037l1.435-14.037h35.299l-7.175 28.074h-32.141c1.148-4.584 2.296-9.167 2.582-14.037zm-4.591 19.479h78.919c20.375 0 37.594-12.318 42.472-28.646h26.402l-55.96 63.309-105.034-10.886c5.739-7.448 10.044-15.469 13.201-23.777zM-41.814 229.719l6.6-29.793 72.032 12.318-20.662 17.188h-57.97v.287zm53.952 3.437l-4.018 3.438-4.878 26.068h-52.517l6.6-29.506h54.813zm-46.777-36.381l4.304-19.193H22.47c7.462 0 14.636-.859 21.523-2.005h36.733l-40.463 34.089-74.901-12.891zM78.43 151.8c-12.627 8.021-27.55 13.178-43.047 14.896l6.888-40.678 9.757-2.864-.287.286L78.43 151.8zm-23.245-29.506l16.07-4.583 2.01-6.589h41.611c-6.888 15.183-18.654 28.933-33.577 38.959l-26.114-27.787zm-23.246 44.402h2.583c-3.444.287-6.887.573-10.331.573H-35.5l3.444-20.625 70.883-20.053-6.888 40.105zm24.393 5.73c21.81-6.875 41.038-20.053 54.526-36.381l104.46 10.885-22.671 25.496H56.332zM84.17 75.887h38.168l-1.435 14.037c-.574 6.302-2.296 12.318-4.591 18.334H74.412l9.757-32.371zM.085 110.549c11.479-.286 23.245-4.583 32.428-11.745 8.036-6.302 13.775-14.323 16.071-22.63h32.428l-12.34 39.818L5.825 133.18l-11.479-22.631h5.74zm-9.47.287l12.053 23.49-37.307 10.599-1.435 8.308H-53.58l10.331-41.251 33.864-1.146zm-27.263 44.975l-2.009 11.458h-46.49l3.157-11.458h45.342zm-23.82-80.21l34.151 30.078-42.473 1.146 8.323-31.225zm13.776 36.094l-10.331 41.251H-81.13l10.619-40.678 23.819-.573zm-63.709-41.824l39.89 6.016-2.583 8.88-43.908-1.432 6.601-13.464zm-49.073-7.448l45.916 7.162-6.6 14.037-51.656-1.72 12.34-19.479zm-12.914 22.058l51.082 1.719-19.515 40.391-31.567-42.11zm43.333 72.476l1.435-2.006-2.583-1.146-2.295 3.152h-19.515L-118.15 86.2l44.195 1.432-19.515 69.325h-35.585zm41.038 20.625h54.526l-11.767 52.137h-56.821l14.062-52.137zm-18.941 69.611l3.731-14.037h57.109l-6.6 29.506h-61.701c3.444-4.87 6.027-10.026 7.461-15.469zm-91.258 137.217l29.845-96.539h9.758c15.496 0 31.28-8.88 41.611-21.485H2.381l-7.749 42.683h-99.294l-.287 1.719c-4.878 19.766-11.479 45.548-18.653 73.622h-74.614zm63.996 57.293c15.496-61.017 29.558-118.024 32.428-128.909h38.742l-42.186 143.519h-32.715c1.148-4.87 2.296-9.74 3.731-14.61zm48.786 111.435h-77.197c.574-1.719.861-3.724 1.435-5.73 2.583-9.739 5.452-20.912 8.322-33.23h76.623c-3.444 12.891-6.6 25.782-9.183 38.96zm12.34-48.986h-76.91c3.444-13.177 6.887-27.787 10.905-43.256h80.928c-5.74 14.037-10.619 28.36-14.923 43.256zm16.644-47.839h-44.768l41.612-143.519h53.664l-12.627 69.038c-14.635 23.203-27.262 47.839-37.88 74.481zm43.334-83.075l10.905-60.444h35.585C16.156 331.7.66 351.753-13.116 373.238zm49.934-64.455H-1.637L6.111 266.1H81.3c-15.496 13.177-30.42 27.5-44.481 42.683zm48.786-46.121H6.685l4.592-24.636 5.74-4.87h107.329c-12.914 9.167-26.115 18.907-38.742 29.506zm43.621-32.943H21.035l63.708-53.569-.574-.573h40.464l12.627 48.985c-2.583 1.719-5.166 3.438-8.035 5.157zm11.192-7.162l-12.053-46.98h98.433c-26.976 12.031-56.535 27.5-86.38 46.98zm92.98-50.131h-36.159l39.029-44.116 56.822 17.761c-9.471 5.156-19.802 10.026-31.281 14.61-9.183 3.437-18.653 7.448-28.411 11.745z"/></g></g><defs><clipPath id="clip0_201_715"><path fill="#fff" d="M0 0h500v569H0z"/></clipPath></defs></svg>