<svg width="120" height="38" fill="none" xmlns="http://www.w3.org/2000/svg"><path d="M43.401 16.506V.223h3.937v6.885h.214L52.936.223h4.636L51.799 7.49l5.876 9.016h-4.707l-4.056-6.4-1.574 1.987v4.413H43.4zM73.534 8.364c0 1.792-.345 3.31-1.034 4.556-.69 1.246-1.622 2.192-2.8 2.839-1.17.646-2.486.97-3.944.97-1.463 0-2.78-.326-3.952-.978-1.171-.652-2.102-1.598-2.79-2.839-.685-1.245-1.027-2.761-1.027-4.548 0-1.791.342-3.31 1.026-4.555.69-1.246 1.62-2.192 2.791-2.839C62.976.323 64.294 0 65.757 0c1.457 0 2.772.323 3.944.97 1.177.647 2.11 1.593 2.799 2.839.689 1.245 1.034 2.764 1.034 4.555zm-4.024 0c0-1.06-.151-1.956-.453-2.687-.297-.732-.727-1.285-1.289-1.662-.556-.376-1.227-.564-2.011-.564-.78 0-1.45.188-2.012.564-.562.377-.994.93-1.296 1.662-.297.731-.446 1.627-.446 2.687 0 1.06.149 1.956.446 2.688.302.731.734 1.285 1.296 1.662.562.376 1.232.564 2.012.564.784 0 1.455-.188 2.011-.564.562-.377.992-.93 1.289-1.662.302-.732.453-1.627.453-2.688zM75.832 16.506V.223h6.727c1.22 0 2.272.22 3.157.66.89.434 1.577 1.06 2.06 1.876.482.811.723 1.773.723 2.886 0 1.13-.246 2.089-.74 2.878-.492.785-1.192 1.384-2.099 1.797-.906.409-1.98.613-3.22.613h-4.254V7.832h3.522c.594 0 1.09-.077 1.487-.23.403-.16.708-.398.915-.716.207-.324.31-.737.31-1.24 0-.504-.103-.92-.31-1.25a1.866 1.866 0 0 0-.915-.747c-.403-.17-.898-.254-1.487-.254h-1.94v13.111h-3.936zM85 9.064l4.056 7.442h-4.294l-3.976-7.442H85zM90.658 16.506V.223h11.356v3.196h-7.42v3.34h6.839v3.204h-6.839v3.347h7.42v3.196H90.658zM108.002 16.506h-4.231L109.266.223h5.24l5.495 16.283h-4.23l-3.825-12.18h-.128l-3.816 12.18zm-.565-6.408h8.843v2.99h-8.843v-2.99zM58.184 27.02h-3.976a3.445 3.445 0 0 0-.326-1.106 2.687 2.687 0 0 0-.652-.843 2.783 2.783 0 0 0-.962-.532 3.683 3.683 0 0 0-1.217-.191c-.79 0-1.47.193-2.043.58-.568.387-1.005.947-1.312 1.678-.303.731-.454 1.617-.454 2.656 0 1.081.154 1.987.462 2.719.312.726.75 1.275 1.312 1.646.567.365 1.238.548 2.012.548.434 0 .83-.055 1.184-.167.36-.111.676-.273.947-.485a2.68 2.68 0 0 0 .675-.787c.18-.313.305-.665.374-1.057l3.976.024a6.024 6.024 0 0 1-.628 2.13c-.344.7-.819 1.339-1.423 1.917-.605.572-1.342 1.028-2.211 1.367-.864.34-1.855.509-2.974.509-1.474 0-2.794-.323-3.96-.97-1.161-.652-2.078-1.6-2.752-2.846-.673-1.246-1.01-2.762-1.01-4.548 0-1.792.343-3.31 1.026-4.556.684-1.246 1.61-2.192 2.776-2.839 1.166-.646 2.473-.97 3.92-.97.986 0 1.898.138 2.735.414a6.64 6.64 0 0 1 2.211 1.192 6.1 6.1 0 0 1 1.55 1.916c.398.758.645 1.625.74 2.6zM63.544 37.403h-4.23l5.494-16.283h5.24l5.495 16.283h-4.23l-3.825-12.18h-.127l-3.817 12.18zm-.565-6.408h8.843v2.99h-8.843v-2.99zM77.297 37.403V21.12h6.727c1.22 0 2.272.22 3.157.66.89.434 1.577 1.06 2.06 1.876.482.811.723 1.773.723 2.886 0 1.13-.246 2.089-.74 2.879-.492.784-1.192 1.383-2.099 1.797-.906.408-1.98.612-3.22.612h-4.254v-3.101h3.522c.594 0 1.09-.077 1.487-.23.403-.16.708-.398.915-.716.207-.324.31-.737.31-1.24 0-.504-.103-.92-.31-1.249a1.867 1.867 0 0 0-.915-.747c-.403-.17-.898-.255-1.487-.255h-1.94v13.111h-3.936zm9.169-7.442 4.055 7.442h-4.294l-3.976-7.442h4.215zM100.926 26.002c-.053-.583-.289-1.037-.708-1.36-.413-.328-1.004-.493-1.773-.493-.509 0-.933.066-1.272.199-.34.133-.594.315-.764.549-.17.228-.257.49-.262.787-.01.243.037.458.143.644.111.185.27.35.477.493.212.137.467.26.764.365.297.106.63.2 1.002.279l1.4.318a9.86 9.86 0 0 1 2.13.7c.621.291 1.14.638 1.559 1.041.424.403.745.867.962 1.391.217.525.329 1.114.334 1.766-.005 1.028-.265 1.91-.779 2.647-.514.737-1.254 1.301-2.219 1.694-.959.392-2.118.588-3.475.588-1.362 0-2.55-.204-3.562-.612-1.013-.408-1.8-1.028-2.362-1.86-.562-.833-.85-1.885-.867-3.157h3.77c.031.525.172.962.42 1.312.25.35.592.615 1.027.795.44.18.949.27 1.526.27.53 0 .981-.071 1.352-.214.377-.144.666-.342.867-.597.202-.254.305-.546.31-.874a1.206 1.206 0 0 0-.286-.788c-.186-.222-.472-.413-.859-.572a8.819 8.819 0 0 0-1.463-.453l-1.702-.398c-1.41-.323-2.52-.845-3.332-1.566-.81-.726-1.214-1.707-1.208-2.942-.006-1.007.265-1.89.81-2.648.547-.758 1.302-1.349 2.267-1.773.965-.424 2.065-.636 3.3-.636 1.262 0 2.357.215 3.284.644.933.424 1.657 1.02 2.171 1.79.514.768.777 1.658.787 2.67h-3.769z" fill="#040F1E"/><path d="M10.75 18.73 26.564.07h10.753l-16.13 18.66L37 37.39H26.564L10.75 18.73z" fill="#11468F"/><path d="M4.744 14.998H0V.07h17.395L4.745 14.998zM4.744 22.463H0V37.39h17.395L4.745 22.463z" fill="#DA1212"/></svg>