<svg width="1445" height="827" fill="none" xmlns="http://www.w3.org/2000/svg"><path d="M1440.11 36.819h-13.63l17.24 32.817V43.222l-3.61-6.403zm-21.65 90.046 24.86 8.404v-3.601l-24.86-8.005v3.202zM1305.8 42.022l44.9 16.008-30.47 31.616-29.67-42.422-3.6.8 30.87 44.023-6.82 7.204-97.42-48.425-1.21 2.801 96.23 48.025-11.23 12.006L980.653 12.406l-2.807 10.406 149.944 48.425-8.82 38.019-48.51-14.808-6.42 35.619-119.871-38.82-1.203 4.402a139.392 139.392 0 0 0-3.207-24.012l95.821 22.011.4-40.42-4.41-.801-.4 36.819-91.812-21.211c-4.811-19.21-11.226-31.616-11.627-32.417l-11.226 2.802c.401.4 17.641 33.617 14.032 75.639-5.212 60.431-48.11 109.256-129.497 143.273-106.645 44.423-212.889 92.448-288.262 172.088-43.701 46.024-74.972 100.052-95.018 165.686-19.245 63.632-28.065 138.871-24.858 230.118h18.844c-3.208-75.639 1.603-140.072 14.433-196.501h46.106l35.682 196.501h6.415l-36.083-196.501h104.64l-20.447 196.501h6.415l19.645-196.501h49.714v196.501h12.429l-.401-129.267 137.917-172.488 13.631 33.217c-43.3 34.418-70.562 94.849-67.355 167.686l4.41 101.252h20.848l-5.212-101.252c-1.203-24.012 1.203-46.424 6.816-66.834h82.189l69.359 168.086h6.816l-69.761-168.086h95.42l-4.812 2.001 67.36 166.485h6.41l-68.558-168.086h66.558l63.34 97.25 13.63 70.836h12.43l-12.43-61.231 210.89 11.606 14.43 49.625h20.85l-25.66-84.843 20.45 3.201 52.12 42.422 61.74 4.802v-7.604l-61.74-4.802-40.9-33.217 102.64 16.408v-7.203l-31.27-4.803-1.21-120.862 32.48 2.001v-6.403l-38.49-2.401.8 126.465-35.28-5.603-14.83-96.05-44.91-68.435 92.21-18.009 40.5 10.405v-6.003l-28.07-7.203 28.07-5.603v-6.804l-67.36 13.207-70.96-95.249c16.84-2.401 34.48-4.002 52.52-4.402l85 84.843v-6.403l-79.79-79.241c25.66-.4 52.92.801 79.79 3.602v-11.205c-6.42-.801-12.43-1.201-18.45-1.601-9.62-.801-19.24-1.201-28.46-1.601l-2.01-47.224h48.92v-17.609h-67.76l-20.05-78.441 87.81 39.621V331.37l-33.28-75.238 33.28 10.805V253.33l-50.12-16.408-8.42-36.019 43.3 11.606-21.65-51.626 36.48 11.606v-12.407l-22.85-7.204-7.62-73.237 30.47 10.805v-3.201L1306.2 39.22l-.4 2.802zm-9.62 120.862 36.08 11.606 11.63 46.423-104.24-33.617 4.01-17.609 51.31 14.007 1.21-20.81zm-135.91 62.832-14.44 19.21c-16.44 21.611-43.3 34.017-75.77 34.017h-44.1l-1.61-70.036 67.36 12.807-8.02-40.821 76.58 44.823zm-77.78-49.626-5.62-28.814 114.67 37.619-28.87 38.019-80.18-46.824zM934.547 329.369l92.613 62.832-28.466 54.828h-44.903l-19.244-117.66zm14.032 118.061h-48.512l-7.617-55.629 47.309 2.802 8.82 52.827zm83.391-51.627 48.51 32.817 4.41 18.409h-79.38l26.46-51.226zm46.91 26.014-44.5-30.416 26.06-50.426 18.44 80.842zm-26.06-133.669h19.64c7.62 0 14.84-.8 21.65-2.001l23.26 32.817-54.93 11.606-9.62-42.422zm23.25 98.45h111.06l17.64 60.832H1090.1l-14.03-60.832zm-1.2-5.202-10.83-45.624 56.93-12.006 41.3 57.63h-87.4zm24.05-96.049c17.64-4.003 33.28-11.606 45.31-22.812l50.51 40.02-72.16 15.208-23.66-32.416zm-50.91 2.801 10.42 44.823-28.87 55.228-95.815-64.833-5.613-35.218h119.878zM939.358 389.4l-89.807-5.203-10.824-96.049h84.193L939.358 389.4zm-94.618-6.003-95.419-5.603-10.825-41.221 101.834 9.605 4.41 37.219zm-94.216-.4 94.617 5.603 6.415 58.429H661.52l90.207-60.831-1.203-3.201zM850.353 389l37.286 2.401 7.216 56.029h-38.488L850.353 389zm110.654 69.235L1086.5 525.07H927.731l-64.147-66.835h97.423zm10.825 0h232.538l-19.25 66.835h-87.4l-125.888-66.835zm238.548 0h38.89c-8.42 19.61-12.83 42.022-12.83 66.835h-44.9l18.84-66.835zm26.86 87.245a287.271 287.271 0 0 0 10.02 52.427l33.68 115.259-157.16-168.086h113.46v.4zm16.44-98.05h-43.7l-18.04-60.832h88.2l7.62 22.412a120.968 120.968 0 0 0-29.67 32.417c-1.6 2.401-2.81 4.802-4.01 7.203l-.4-1.2zm-86.2-66.034-42.09-58.83 74.17-15.608 73.36 58.43 5.62 16.008h-111.06zm37.29-75.639 44.5-9.605 21.25 61.632-65.75-52.027zm-4.81-4.002-52.52-42.022c2.8-2.801 5.21-5.603 7.21-8.404l47.31-63.232 11.63 4.002 34.08 99.651-47.71 10.005zm18.44-108.456 113.46 37.219 16.84 66.835-111.46-49.226-18.84-54.828zm44.1-78.44 30.07 9.605-1.6 33.217-29.67-9.605 1.2-33.217zm-4.41-1.601-.8 33.217-32.88-10.805-1.6-34.018 35.28 11.606zm-125.89-40.42 35.28 11.205-4.41 38.82-39.29-12.006 8.42-38.02zm-9.22 41.621 44.1 13.607 4.81-42.422 46.91 15.208 1.6 37.619 71.37 23.212-.8 17.209-50.52-13.607-5.21 20.811-56.53-18.81.8-1.601-60.94-30.416 4.41-20.81zm-48.51-15.208 44.1 13.607-5.21 23.612 54.12 27.214-98.22-32.016 5.21-32.417zm-2.41 46.424 14.03 70.836L973.035 194.5l23.654-73.638 75.371 24.813zM943.367 116.06c.401-4.403.401-8.405.401-12.407l48.511 16.008-24.055 74.439-48.11-9.205c13.631-21.611 21.248-44.823 23.253-68.835zm-30.069 77.639c1.203-2.001 2.806-3.601 4.009-5.602l102.233 19.61.8 36.819-143.927-14.008c14.834-11.606 27.263-24.012 36.885-36.819zm-105.843 75.639c24.456-10.405 45.705-22.011 64.147-35.218l149.138 14.808.41 30.015H785.805c6.816-3.201 14.433-6.403 21.65-9.605zm-43.3 18.81h69.761l6.013 53.227-102.635-9.605-7.217-28.414c11.226-5.203 22.452-10.406 34.078-15.208zm-42.898 19.21 17.64 69.636-130.299-8.005c34.88-22.811 72.968-43.222 112.659-61.631zM427.382 621.919c15.636-64.833 42.497-118.461 79.783-163.284h57.332l-36.083 163.284H427.382zm210.884 0H534.027l35.682-163.284h68.557v163.284zM516.787 447.43c2.005-2.402 4.41-4.803 6.415-7.204 23.253-24.813 49.714-46.424 78.179-66.034l137.115 8.404-96.622 64.834H516.787zm133.106 237.722-1.203-226.917h112.258l24.055 58.43-135.11 168.487zm116.668-226.917h89.806l63.747 66.835H888.04c-30.871 0-58.936 10.005-82.59 27.214l-38.889-94.049zm-4.009 191.298c9.622-30.415 25.658-55.628 46.907-73.637l30.47 73.637h-77.377zm83.391 0-32.074-77.239c21.65-17.209 48.111-26.814 76.977-26.814h48.111l67.753 104.454H845.943v-.401zm99.429-104.053h88.608l37.68 193.299L945.372 545.48zm140.318 203.705L1044.8 545.48h72.17l75.37 80.842-106.65 122.863zm4.01 6.803 107.85-124.864 87.4 93.648 12.43 42.422-207.68-11.206zm260.2-108.856 14.43 94.449-57.33-9.205-40.49-134.869c-1.2-3.602-2.01-6.804-2.81-10.406l42.1-8.404 44.1 68.435zm-88.2-66.034c-4.81-21.211-6.82-41.621-6.02-60.03l74.17 46.423-68.15 13.607zm108.65-21.611-33.28 6.404-80.98-50.827c1.2-16.008 4.81-30.415 10.42-43.622 10.82-3.202 21.65-5.603 33.28-7.604h-.41l70.97 95.649zm8.02-158.881h10.42l1.6 46.824c-44.9-1.601-83.79 1.601-117.07 9.605 20.85-35.218 57.34-56.429 105.05-56.429zm-8.02-17.209c-30.47.4-56.93 8.004-78.18 22.411l-52.92-152.878 110.65 49.225 20.45 81.242zm34.08-129.267 37.28 84.444-87.4-38.82-17.24-67.635 67.36 22.011zm-16.04-18.809-39.29-12.807-13.23-50.426-39.69-12.806 1.2-33.217 70.56 22.811 20.45 86.445zm32.87-28.415-37.28-10.005-10.83-46.424 28.47 9.205 19.64 47.224zm-5.61-55.228-113.46-36.419 31.27-32.817 76.98 20.011 5.21 49.225zm-7.62-73.238 2.01 20.811-73.77-19.21 19.24-20.41 52.52 18.81zM740.501 185.295h.802v-.4c14.834-10.405 27.262-22.011 38.087-34.018 18.443-22.811 30.47-47.624 34.479-74.038C820.685 34.017 805.45 1.201 804.648 0l-5.613 1.6-5.212 1.201c.401.4 14.434 32.017 7.618 72.037-1.203 6.804-2.807 13.607-5.212 20.41h-32.876l14.835-46.823-4.01-1.2-15.235 48.024h-26.06l-4.009-42.822h-4.009l3.608 42.422h-82.589c.801-3.202 1.202-6.003.801-9.205v-38.02h-8.419v38.02c0 24.813-23.654 45.223-52.521 45.223h-20.447l13.632-94.048-4.009-.4-7.618 51.626h-83.391l4.41-46.424H474.69l-5.212 46.424h-52.52l12.428-40.42-4.009-.4-12.829 40.82h-44.503c0-.4.401-.8.401-1.2l8.42-50.026h-8.019l-8.82 50.426c0 .4-.401.8-.401 1.2h-79.382l10.825-46.423h-4.01l-12.027 50.025h83.391c-6.414 22.412-30.871 40.021-57.732 40.421l-31.673.8-53.323-46.423 18.844-69.236h-13.632l-19.645 70.836-54.926-8.404 18.843-39.22-4.009-.4-18.843 39.22-63.746-9.605 14.032-21.611-3.609-.8-34.479 52.426L0 98.451v3.601l43.3 1.601L0 125.264v3.602l50.516-25.213h2.005l-40.093 62.032L0 164.084v4.402l9.622 1.201L0 184.895v7.204l54.525-84.444 45.304 60.431-18.041 37.219H0v4.403h34.078L0 252.129v6.404l38.087-48.025-2.004-.8h74.571L0 358.184v7.204l115.465-155.68h51.719L133.106 331.37c-6.014 21.611-28.867 39.62-50.917 39.62H0v17.209h58.535l-42.097 134.87H0v6.003h124.686c-7.617 30.415-16.036 62.832-24.055 94.448H0v6.804h99.028c-5.213 20.81-10.425 41.221-15.236 60.431H0v14.007h14.433L0 754.788v21.21l20.447-71.636h59.336C63.345 767.994 50.516 817.22 48.511 824.423c.802-1.2 2.005-2.401 3.609-2.401l-.802 2.401h3.207c.802-3.201 2.406-8.804 5.212-20.01 2.406-9.605 6.014-22.412 10.023-38.42h107.848c-3.608 18.81-6.816 38.42-9.622 58.43h19.244c50.917-385.398 327.953-540.677 482.308-601.909 27.263-10.805 50.917-23.212 70.963-37.219zm54.124-86.444c-10.023 26.413-28.064 50.025-55.327 70.836l-6.415-70.836h61.742zm-65.751 0 6.415 74.038c-6.816 5.202-14.433 10.005-22.452 14.807l-80.986-25.613 55.728-63.232h41.295zm-161.571-6.804-5.613 39.22h-34.078l10.023-39.22h29.668zm-85.396 19.61 2.005-19.61h49.313l-10.023 39.22h-44.903c1.603-6.403 3.207-12.806 3.608-19.61zm-6.415 27.214h110.253c28.466 0 52.521-17.209 59.337-40.02h36.885l-78.18 88.445-146.737-15.208c8.018-10.405 14.032-21.611 18.442-33.217zM240.553 306.958l9.221-41.622 100.631 17.209-28.866 24.012h-80.986v.401zm75.373 4.802-5.613 4.803-6.816 36.418h-73.368l9.221-41.221h76.576zm-65.35-50.826 6.013-26.814h73.77c10.424 0 20.447-1.2 30.069-2.801h51.318l-56.53 47.624-104.64-18.009zm157.962-62.832c-17.64 11.205-38.488 18.409-60.138 20.81l9.622-56.829 13.632-4.002-.401.4 37.285 39.621zm-32.474-41.221 22.451-6.404 2.807-9.204h58.133c-9.622 21.21-26.059 40.42-46.907 54.427l-36.484-38.819zm-32.475 62.031h3.609c-4.812.401-9.623.801-14.434.801h-83.391l4.811-28.815 99.027-28.014-9.622 56.028zm34.078 8.005c30.47-9.605 57.332-28.015 76.175-50.827l145.936 15.208-31.673 35.619H377.667zm38.89-134.87h53.322l-2.004 19.61c-.802 8.805-3.208 17.209-6.415 25.613h-58.534l13.631-45.223zm-117.47 48.425c16.037-.4 32.475-6.403 45.304-16.408 11.226-8.805 19.244-20.011 22.452-31.616h45.304l-17.24 55.628-87.802 24.012-16.036-31.616h8.018zm-13.23.4 16.838 32.817-52.119 14.808-2.005 11.606h-24.456l14.433-57.63 47.309-1.601zm-38.088 62.833-2.806 16.008h-64.95l4.411-16.008h63.345zM214.493 91.647l47.709 42.022-59.336 1.6 11.627-43.622zm19.244 50.426-14.433 57.63h-33.678l14.834-56.83 33.277-.8zm-89.005-58.43 55.728 8.404-3.608 12.407-61.341-2.001 9.221-18.81zM76.175 73.238l64.147 10.005-9.221 19.61-72.166-2.401 17.24-27.214zm-18.041 30.815 71.363 2.402-27.262 56.429-44.102-58.831zm60.539 101.252 2.004-2.801-3.608-1.601-3.207 4.402H86.599l47.309-98.85 61.741 2.001-27.262 96.849h-49.714zm57.331 28.815h76.175l-16.438 72.838h-79.382l19.645-72.838zm-26.461 97.25 5.212-19.61h79.784l-9.221 41.221H139.12c4.811-6.803 8.419-14.007 10.423-21.611zM22.051 523.069l41.695-134.87h13.632c21.65 0 43.7-12.406 58.133-30.015h166.783l-10.825 59.631H152.751l-.401 2.401c-6.816 27.614-16.037 63.632-26.06 102.853H22.05zm89.405 80.041c21.65-85.244 41.295-164.885 45.304-180.093h54.124L151.949 623.52h-45.705c1.604-6.803 3.207-13.607 5.212-20.41zm68.157 155.68H71.765c.802-2.402 1.203-5.203 2.004-8.005 3.609-13.607 7.618-29.215 11.627-46.423h107.046c-4.811 18.009-9.221 36.018-12.829 54.428zm17.239-68.436H89.405c4.811-18.409 9.623-38.82 15.235-60.431H217.7c-8.018 19.61-14.834 39.621-20.848 60.431zm23.254-66.834h-62.544l58.133-200.503h74.973l-17.641 96.45c-20.447 32.416-38.087 66.834-52.921 104.053zm60.539-116.059 15.235-84.444h49.714c-24.055 26.414-45.705 54.428-64.949 84.444zm69.76-90.047h-53.724l10.825-59.63h105.042c-21.65 18.409-42.498 38.419-62.143 59.63zm68.156-64.433H308.308l6.415-34.417 8.018-6.804h149.945c-18.042 12.807-36.484 26.414-54.125 41.221zm60.94-46.023H328.354l89.005-74.839-.802-.8h56.53l17.64 68.435c-3.608 2.401-7.216 4.802-11.226 7.204zm15.636-10.006-16.838-65.633h137.516c-37.687 16.808-78.982 38.419-120.678 65.633zm129.899-70.035H574.52l54.525-61.632 79.382 24.813c-13.23 7.203-27.663 14.007-43.7 20.41-12.83 4.803-26.06 10.405-39.691 16.409z" fill="#11468F"/></svg>