<svg width="18" height="18" viewBox="0 0 18 18" fill="none" xmlns="http://www.w3.org/2000/svg">
<g clip-path="url(#clip0_31_1474)">
<path d="M17.6902 14.8966H0.310908C0.139522 14.8966 0.000549316 14.7577 0.000549316 14.5863V3.41387C0.000549316 3.24249 0.139522 3.10352 0.310908 3.10352H17.6902C17.8616 3.10352 18.0005 3.24249 18.0005 3.41387V14.5863C18.0005 14.7577 17.8615 14.8966 17.6902 14.8966Z" fill="#F5F5F5"/>
<path d="M10.7234 6.41708C9.29735 5.46642 7.37125 5.85507 6.42119 7.27862C5.94465 7.98916 6.13836 8.95465 6.85133 9.43C7.56377 9.90535 8.52617 9.71231 9.00151 8.99927C9.47686 8.28626 10.4399 8.09561 11.1523 8.56846C11.8659 9.04381 12.0578 10.0093 11.5818 10.7198C12.5325 9.29391 12.1482 7.36777 10.7234 6.41708Z" fill="#FF4B55"/>
<path d="M6.4212 7.27881C5.94466 7.98935 6.13837 8.95484 6.85134 9.43019C7.56378 9.90554 8.52618 9.7125 9.00153 8.99946C9.47687 8.28646 10.4399 8.0958 11.1523 8.56865C11.8659 9.044 12.0578 10.0095 11.5818 10.72C10.6324 12.1485 8.70692 12.5323 7.28088 11.5816C5.85614 10.631 5.47055 8.70485 6.4212 7.27881Z" fill="#41479B"/>
<path d="M12.3028 5.24502L12.8665 6.09235C12.9139 6.16354 12.8947 6.25966 12.8237 6.30723L12.6807 6.40296C12.6094 6.4507 12.5128 6.4315 12.4652 6.36007L11.9008 5.51294C11.8533 5.44168 11.8726 5.34539 11.9438 5.29782L12.0875 5.20192C12.1588 5.15428 12.2553 5.17358 12.3028 5.24502Z" fill="#464655"/>
<path d="M13.1728 6.55143L13.7383 7.39823C13.7861 7.46974 13.7666 7.56649 13.6949 7.61388L13.5513 7.70877C13.48 7.75588 13.3841 7.73651 13.3367 7.66553L12.7715 6.8196C12.7239 6.74837 12.743 6.65201 12.8143 6.60437L12.9575 6.50861C13.0287 6.46097 13.1251 6.48013 13.1728 6.55143Z" fill="#464655"/>
<path d="M12.9065 4.84208L14.3418 6.99621C14.3894 7.0675 14.3701 7.16383 14.2988 7.21136L14.1546 7.30748C14.0833 7.35505 13.9869 7.33574 13.9394 7.26445L12.5035 5.11046C12.4559 5.03913 12.4753 4.94273 12.5466 4.89524L12.6913 4.79894C12.7626 4.75152 12.8589 4.77078 12.9065 4.84208Z" fill="#464655"/>
<path d="M13.5085 4.43986L14.0735 5.28885C14.1211 5.36035 14.1015 5.45689 14.0298 5.50425L13.8862 5.59917C13.8149 5.64628 13.7189 5.62691 13.6715 5.55579L13.1062 4.70793C13.0586 4.63663 13.0779 4.54027 13.1492 4.49273L13.2933 4.39669C13.3646 4.34912 13.461 4.36842 13.5085 4.43986Z" fill="#464655"/>
<path d="M14.3789 5.74889L14.943 6.59612C14.9904 6.66735 14.9712 6.76353 14.9001 6.8111L14.7568 6.90686C14.6855 6.95457 14.5889 6.93531 14.5414 6.86387L13.9773 6.01664C13.9299 5.94541 13.9491 5.84923 14.0202 5.80166L14.1635 5.7059C14.2348 5.65819 14.3313 5.67742 14.3789 5.74889Z" fill="#464655"/>
<path d="M4.66699 10.3352L6.10221 12.487C6.14974 12.5583 6.13054 12.6546 6.05924 12.7022L5.91553 12.7981C5.84423 12.8457 5.74787 12.8265 5.70027 12.7552L4.26505 10.6034C4.21752 10.5321 4.23671 10.4358 4.30801 10.3882L4.45173 10.2922C4.52302 10.2446 4.61942 10.2639 4.66699 10.3352Z" fill="#464655"/>
<path d="M4.06457 10.7376L4.62805 11.5828C4.67555 11.654 4.65639 11.7501 4.58527 11.7978L4.44232 11.8935C4.37106 11.9412 4.27459 11.922 4.22696 11.8507L3.66281 11.0057C3.61521 10.9344 3.6344 10.8381 3.7057 10.7905L3.84935 10.6946C3.92061 10.647 4.01701 10.6662 4.06457 10.7376Z" fill="#464655"/>
<path d="M4.9353 12.0448L5.49942 12.8921C5.54688 12.9633 5.52765 13.0596 5.45646 13.1071L5.31309 13.2029C5.24176 13.2506 5.14532 13.2314 5.09772 13.16L4.53326 12.3128C4.48576 12.2416 4.50502 12.1453 4.57622 12.0977L4.71994 12.0017C4.7913 11.9541 4.88774 11.9734 4.9353 12.0448Z" fill="#464655"/>
<path d="M3.46196 11.1399L4.89626 13.2918C4.94376 13.363 4.92453 13.4593 4.85341 13.5069L4.71008 13.6027C4.63878 13.6504 4.54235 13.6312 4.49474 13.5598L3.0596 11.4082C3.01203 11.3369 3.03133 11.2406 3.10263 11.193L3.24684 11.0969C3.31807 11.0493 3.41443 11.0686 3.46196 11.1399Z" fill="#464655"/>
<path d="M4.26536 7.3985L5.70037 5.24494C5.74793 5.17357 5.84433 5.1543 5.91566 5.2019L6.05935 5.29785C6.13061 5.34541 6.1498 5.44174 6.10231 5.513L4.66674 7.66537C4.61928 7.73649 4.52327 7.75583 4.45201 7.70865L4.30889 7.6139C4.23724 7.56651 4.21776 7.46993 4.26536 7.3985Z" fill="#464655"/>
<path d="M3.66254 6.99607L5.09779 4.84209C5.14535 4.77072 5.24182 4.75145 5.31316 4.79913L5.45649 4.89496C5.52764 4.94253 5.54684 5.03871 5.49938 5.10998L4.06451 7.26407C4.01695 7.33543 3.92055 7.35473 3.84922 7.3071L3.7055 7.21116C3.63427 7.16363 3.61504 7.06733 3.66254 6.99607Z" fill="#464655"/>
<path d="M3.05932 6.59593L4.49471 4.4398C4.54228 4.3684 4.63878 4.3491 4.71012 4.39677L4.85345 4.4926C4.9246 4.54017 4.9438 4.63629 4.89641 4.70755L3.4619 6.86399C3.4144 6.9354 3.31797 6.95473 3.24663 6.90717L3.10242 6.81105C3.03116 6.76352 3.0119 6.66722 3.05932 6.59593Z" fill="#464655"/>
<path d="M11.9011 12.4872L12.4652 11.6423C12.5129 11.5709 12.6093 11.5518 12.6806 11.5995L12.8236 11.6952C12.8947 11.7428 12.9138 11.839 12.8663 11.9102L12.3029 12.7554C12.2553 12.8267 12.1589 12.846 12.0876 12.7984L11.9439 12.7025C11.8727 12.6549 11.8535 12.5585 11.9011 12.4872Z" fill="#464655"/>
<path d="M12.7713 11.1845L13.3364 10.3353C13.3839 10.264 13.4803 10.2446 13.5516 10.2922L13.6956 10.3882C13.767 10.4357 13.7862 10.5322 13.7386 10.6035L13.1724 11.4513C13.1249 11.5224 13.0289 11.5417 12.9576 11.4944L12.8148 11.3998C12.7432 11.3524 12.7238 11.2559 12.7713 11.1845Z" fill="#464655"/>
<path d="M12.5035 12.8914L13.068 12.0443C13.1155 11.9729 13.2119 11.9536 13.2832 12.0012L13.4275 12.0974C13.4987 12.1449 13.518 12.2412 13.4705 12.3125L12.9064 13.1598C12.8589 13.2311 12.7626 13.2505 12.6912 13.203L12.5466 13.1067C12.4753 13.0592 12.4559 12.9628 12.5035 12.8914Z" fill="#464655"/>
<path d="M13.3747 11.5826L13.9395 10.7374C13.9871 10.6662 14.0834 10.647 14.1546 10.6945L14.2988 10.7906C14.3702 10.8382 14.3894 10.9346 14.3418 11.0059L13.777 11.8512C13.7294 11.9224 13.6331 11.9416 13.5619 11.8941L13.4177 11.7979C13.3463 11.7504 13.327 11.654 13.3747 11.5826Z" fill="#464655"/>
<path d="M13.1063 13.2916L13.6714 12.4459C13.7189 12.3749 13.8147 12.3556 13.886 12.4027L14.0296 12.4976C14.1013 12.545 14.1208 12.6416 14.0732 12.7131L13.5085 13.56C13.4609 13.6313 13.3646 13.6505 13.2933 13.603L13.1492 13.507C13.0778 13.4594 13.0586 13.3629 13.1063 13.2916Z" fill="#464655"/>
<path d="M13.9775 11.9872L14.5412 11.1405C14.5888 11.0691 14.6853 11.0498 14.7566 11.0975L14.8998 11.1932C14.971 11.2408 14.9902 11.3371 14.9426 11.4083L14.3784 12.2539C14.331 12.3251 14.2349 12.3444 14.1636 12.2971L14.0209 12.2025C13.9494 12.1552 13.9299 12.0586 13.9775 11.9872Z" fill="#464655"/>
</g>
<defs>
<clipPath id="clip0_31_1474">
<rect width="18" height="18" fill="white"/>
</clipPath>
</defs>
</svg>
